<svg preserveAspectRatio="none" width="100%" height="100%" overflow="visible" style="display: block;" viewBox="0 0 15 13.5" fill="none" xmlns="http://www.w3.org/2000/svg">
<g id="Container">
<path id="Icon" d="M6 8.38125L6.75 6.75L8.38125 6L6.75 5.25L6 3.61875L5.25 5.25L3.61875 6L5.25 6.75L6 8.38125V8.38125M6 12L4.125 7.875L0 6L4.125 4.125L6 0L7.875 4.125L12 6L7.875 7.875L6 12V12M12 13.5L11.0625 11.4375L9 10.5L11.0625 9.5625L12 7.5L12.9375 9.5625L15 10.5L12.9375 11.4375L12 13.5V13.5M6 6V6V6V6V6V6V6V6V6V6" fill="var(--fill-0, white)"/>
</g>
</svg>
