<svg preserveAspectRatio="none" width="100%" height="100%" overflow="visible" style="display: block;" viewBox="0 0 23.25 27" fill="none" xmlns="http://www.w3.org/2000/svg">
<g id="Background">
<rect width="23.25" height="27" rx="8" fill="var(--fill-0, #163422)"/>
<path id="Icon" d="M8.25 21V14.1375C7.6125 13.9625 7.07813 13.6125 6.64688 13.0875C6.21563 12.5625 6 11.95 6 11.25V6H7.5V11.25H8.25V6H9.75V11.25H10.5V6H12V11.25C12 11.95 11.7844 12.5625 11.3531 13.0875C10.9219 13.6125 10.3875 13.9625 9.75 14.1375V21H8.25V21M15.75 21V15H13.5V9.75C13.5 8.7125 13.8656 7.82812 14.5969 7.09687C15.3281 6.36562 16.2125 6 17.25 6V21H15.75V21" fill="var(--fill-0, white)"/>
</g>
</svg>
