<svg preserveAspectRatio="none" width="100%" height="100%" overflow="visible" style="display: block;" viewBox="0 0 9 10" fill="none" xmlns="http://www.w3.org/2000/svg">
<g id="Container">
<path id="Icon" d="M1 10C0.725 10 0.489583 9.90208 0.29375 9.70625C0.0979166 9.51042 0 9.275 0 9V2C0 1.725 0.0979166 1.48958 0.29375 1.29375C0.489583 1.09792 0.725 1 1 1H1.5V0H2.5V1H6.5V0H7.5V1H8C8.275 1 8.51042 1.09792 8.70625 1.29375C8.90208 1.48958 9 1.725 9 2V9C9 9.275 8.90208 9.51042 8.70625 9.70625C8.51042 9.90208 8.275 10 8 10H1V10M1 9H8V9V9V4H1V9V9V9V9M1 3H8V2V2V2H1V2V2V3V3M1 3V2V2V2V2V2V2V3V3V3M4.5 6C4.35833 6 4.23958 5.95208 4.14375 5.85625C4.04792 5.76042 4 5.64167 4 5.5C4 5.35833 4.04792 5.23958 4.14375 5.14375C4.23958 5.04792 4.35833 5 4.5 5C4.64167 5 4.76042 5.04792 4.85625 5.14375C4.95208 5.23958 5 5.35833 5 5.5C5 5.64167 4.95208 5.76042 4.85625 5.85625C4.76042 5.95208 4.64167 6 4.5 6V6M2.5 6C2.35833 6 2.23958 5.95208 2.14375 5.85625C2.04792 5.76042 2 5.64167 2 5.5C2 5.35833 2.04792 5.23958 2.14375 5.14375C2.23958 5.04792 2.35833 5 2.5 5C2.64167 5 2.76042 5.04792 2.85625 5.14375C2.95208 5.23958 3 5.35833 3 5.5C3 5.64167 2.95208 5.76042 2.85625 5.85625C2.76042 5.95208 2.64167 6 2.5 6V6M6.5 6C6.35833 6 6.23958 5.95208 6.14375 5.85625C6.04792 5.76042 6 5.64167 6 5.5C6 5.35833 6.04792 5.23958 6.14375 5.14375C6.23958 5.04792 6.35833 5 6.5 5C6.64167 5 6.76042 5.04792 6.85625 5.14375C6.95208 5.23958 7 5.35833 7 5.5C7 5.64167 6.95208 5.76042 6.85625 5.85625C6.76042 5.95208 6.64167 6 6.5 6V6M4.5 8C4.35833 8 4.23958 7.95208 4.14375 7.85625C4.04792 7.76042 4 7.64167 4 7.5C4 7.35833 4.04792 7.23958 4.14375 7.14375C4.23958 7.04792 4.35833 7 4.5 7C4.64167 7 4.76042 7.04792 4.85625 7.14375C4.95208 7.23958 5 7.35833 5 7.5C5 7.64167 4.95208 7.76042 4.85625 7.85625C4.76042 7.95208 4.64167 8 4.5 8V8M2.5 8C2.35833 8 2.23958 7.95208 2.14375 7.85625C2.04792 7.76042 2 7.64167 2 7.5C2 7.35833 2.04792 7.23958 2.14375 7.14375C2.23958 7.04792 2.35833 7 2.5 7C2.64167 7 2.76042 7.04792 2.85625 7.14375C2.95208 7.23958 3 7.35833 3 7.5C3 7.64167 2.95208 7.76042 2.85625 7.85625C2.76042 7.95208 2.64167 8 2.5 8V8M6.5 8C6.35833 8 6.23958 7.95208 6.14375 7.85625C6.04792 7.76042 6 7.64167 6 7.5C6 7.35833 6.04792 7.23958 6.14375 7.14375C6.23958 7.04792 6.35833 7 6.5 7C6.64167 7 6.76042 7.04792 6.85625 7.14375C6.95208 7.23958 7 7.35833 7 7.5C7 7.64167 6.95208 7.76042 6.85625 7.85625C6.76042 7.95208 6.64167 8 6.5 8V8" fill="var(--fill-0, #424843)"/>
</g>
</svg>
