<svg preserveAspectRatio="none" width="100%" height="100%" overflow="visible" style="display: block;" viewBox="0 0 27 22.5" fill="none" xmlns="http://www.w3.org/2000/svg">
<g id="Background">
<rect width="27" height="22.5" rx="8" fill="var(--fill-0, #452800)"/>
<path id="Icon" d="M6 16.5V12C6 11.6625 6.06875 11.3563 6.20625 11.0813C6.34375 10.8063 6.525 10.5625 6.75 10.35V8.25C6.75 7.625 6.96875 7.09375 7.40625 6.65625C7.84375 6.21875 8.375 6 9 6H12C12.2875 6 12.5563 6.05312 12.8063 6.15937C13.0563 6.26562 13.2875 6.4125 13.5 6.6C13.7125 6.4125 13.9438 6.26562 14.1938 6.15937C14.4438 6.05312 14.7125 6 15 6H18C18.625 6 19.1562 6.21875 19.5938 6.65625C20.0312 7.09375 20.25 7.625 20.25 8.25V10.35C20.475 10.5625 20.6562 10.8063 20.7937 11.0813C20.9312 11.3563 21 11.6625 21 12V16.5H19.5V15H7.5V16.5H6V16.5M14.25 9.75H18.75V8.25C18.75 8.0375 18.6781 7.85938 18.5344 7.71563C18.3906 7.57188 18.2125 7.5 18 7.5H15C14.7875 7.5 14.6094 7.57188 14.4656 7.71563C14.3219 7.85938 14.25 8.0375 14.25 8.25V9.75V9.75M8.25 9.75H12.75V8.25C12.75 8.0375 12.6781 7.85938 12.5344 7.71563C12.3906 7.57188 12.2125 7.5 12 7.5H9C8.7875 7.5 8.60938 7.57188 8.46563 7.71563C8.32188 7.85938 8.25 8.0375 8.25 8.25V9.75V9.75M7.5 13.5H19.5V12C19.5 11.7875 19.4281 11.6094 19.2844 11.4656C19.1406 11.3219 18.9625 11.25 18.75 11.25H8.25C8.0375 11.25 7.85938 11.3219 7.71563 11.4656C7.57188 11.6094 7.5 11.7875 7.5 12V13.5V13.5M19.5 13.5V13.5H7.5V13.5C7.5 13.5 7.57188 13.5 7.71563 13.5C7.85938 13.5 8.0375 13.5 8.25 13.5H18.75C18.9625 13.5 19.1406 13.5 19.2844 13.5C19.4281 13.5 19.5 13.5 19.5 13.5V13.5" fill="var(--fill-0, white)"/>
</g>
</svg>
