<svg preserveAspectRatio="none" width="100%" height="100%" overflow="visible" style="display: block;" viewBox="0 0 9 9" fill="none" xmlns="http://www.w3.org/2000/svg">
<g id="Container">
<path id="Icon" d="M0 9V6.875L6.6 0.2875C6.7 0.195833 6.81042 0.125 6.93125 0.075C7.05208 0.025 7.17917 0 7.3125 0C7.44583 0 7.575 0.025 7.7 0.075C7.825 0.125 7.93333 0.2 8.025 0.3L8.7125 1C8.8125 1.09167 8.88542 1.2 8.93125 1.325C8.97708 1.45 9 1.575 9 1.7C9 1.83333 8.97708 1.96042 8.93125 2.08125C8.88542 2.20208 8.8125 2.3125 8.7125 2.4125L2.125 9H0V9M7.3 2.4L8 1.7L7.3 1L6.6 1.7L7.3 2.4V2.4" fill="var(--fill-0, white)"/>
</g>
</svg>
