<svg preserveAspectRatio="none" width="100%" height="100%" overflow="visible" style="display: block;" viewBox="0 0 14.6667 14.6667" fill="none" xmlns="http://www.w3.org/2000/svg">
<g id="Container">
<path id="Icon" d="M8.21667 8C7.86111 7.5 7.39167 7.15278 6.80833 6.95833C6.225 6.76389 5.62222 6.66667 5 6.66667C4.37778 6.66667 3.775 6.76389 3.19167 6.95833C2.60833 7.15278 2.13889 7.5 1.78333 8H8.21667V8M0 9.33333C0 8.12222 0.505556 7.15278 1.51667 6.425C2.52778 5.69722 3.68889 5.33333 5 5.33333C6.31111 5.33333 7.47222 5.69722 8.48333 6.425C9.49444 7.15278 10 8.12222 10 9.33333H0V9.33333M0 12V10.6667H10V12H0V12M11.3333 14.6667V13.3333H12.2667L13.2 4H6.83333L6.66667 2.66667H10V0H11.3333V2.66667H14.6667L13.5667 13.7C13.5333 13.9778 13.4111 14.2083 13.2 14.3917C12.9889 14.575 12.7444 14.6667 12.4667 14.6667H11.3333V14.6667M11.3333 13.3333H12.2667V13.3333H11.3333V13.3333V13.3333V13.3333V13.3333V13.3333M0.666667 14.6667C0.477778 14.6667 0.319444 14.6028 0.191667 14.475C0.0638889 14.3472 0 14.1889 0 14V13.3333H10V14C10 14.1889 9.93611 14.3472 9.80833 14.475C9.68056 14.6028 9.52222 14.6667 9.33333 14.6667H0.666667V14.6667M5 8V8V8V8V8V8V8" fill="var(--fill-0, #1A1C19)"/>
</g>
</svg>
