<svg preserveAspectRatio="none" width="100%" height="100%" overflow="visible" style="display: block;" viewBox="0 0 11.3619 11.3498" fill="none" xmlns="http://www.w3.org/2000/svg">
<g id="Container">
<path id="Icon" d="M5.5 11.3498C5.13333 11.3498 4.76389 11.3081 4.39167 11.2248C4.01944 11.1415 3.63889 11.022 3.25 10.8665C3.38333 9.52204 3.77222 8.26648 4.41667 7.09981C5.06111 5.93315 5.88889 4.90537 6.9 4.01648C5.67778 4.6387 4.61944 5.46092 3.725 6.48315C2.83056 7.50537 2.20556 8.67203 1.85 9.98315C1.80556 9.94981 1.76389 9.9137 1.725 9.87481C1.68611 9.83592 1.64444 9.79426 1.6 9.74981C1.07778 9.22759 0.680556 8.64426 0.408333 7.99981C0.136111 7.35537 0 6.68315 0 5.98315C0 5.22759 0.15 4.50537 0.45 3.81648C0.75 3.12759 1.16667 2.51648 1.7 1.98315C2.6 1.08315 3.76667 0.497035 5.2 0.224813C6.63333 -0.0474095 8.64444 -0.0724095 11.2333 0.149813C11.4333 2.80537 11.4 4.83037 11.1333 6.22481C10.8667 7.61926 10.2889 8.76092 9.4 9.64981C8.85556 10.1943 8.24722 10.6137 7.575 10.9081C6.90278 11.2026 6.21111 11.3498 5.5 11.3498V11.3498" fill="var(--fill-0, white)"/>
</g>
</svg>
