<svg preserveAspectRatio="none" width="100%" height="100%" overflow="visible" style="display: block;" viewBox="0 0 22.5 25" fill="none" xmlns="http://www.w3.org/2000/svg">
<g id="Container">
<path id="Icon" d="M8.375 20.875L6.625 19.125L9.5 16.25L6.625 13.375L8.375 11.625L11.25 14.5L14.125 11.625L15.875 13.375L13 16.25L15.875 19.125L14.125 20.875L11.25 18L8.375 20.875V20.875M2.5 25C1.8125 25 1.22396 24.7552 0.734375 24.2656C0.244792 23.776 0 23.1875 0 22.5V5C0 4.3125 0.244792 3.72396 0.734375 3.23438C1.22396 2.74479 1.8125 2.5 2.5 2.5H3.75V0H6.25V2.5H16.25V0H18.75V2.5H20C20.6875 2.5 21.276 2.74479 21.7656 3.23438C22.2552 3.72396 22.5 4.3125 22.5 5V22.5C22.5 23.1875 22.2552 23.776 21.7656 24.2656C21.276 24.7552 20.6875 25 20 25H2.5V25M2.5 22.5H20V22.5V22.5V10H2.5V22.5V22.5V22.5V22.5M2.5 7.5H20V5V5V5H2.5V5V5V7.5V7.5M2.5 7.5V5V5V5V5V5V5V7.5V7.5V7.5" fill="#163422" fill-opacity="0.4"/>
</g>
</svg>
