<svg preserveAspectRatio="none" width="100%" height="100%" overflow="visible" style="display: block;" viewBox="0 0 36 36" fill="none" xmlns="http://www.w3.org/2000/svg">
<g id="Background">
<rect width="36" height="36" rx="12" fill="var(--fill-0, #2D4B37)"/>
<path id="Icon" d="M13.5 22.5L20.5 20.5L22.5 13.5L15.5 15.5L13.5 22.5V22.5M18 19.5C17.5833 19.5 17.2292 19.3542 16.9375 19.0625C16.6458 18.7708 16.5 18.4167 16.5 18C16.5 17.5833 16.6458 17.2292 16.9375 16.9375C17.2292 16.6458 17.5833 16.5 18 16.5C18.4167 16.5 18.7708 16.6458 19.0625 16.9375C19.3542 17.2292 19.5 17.5833 19.5 18C19.5 18.4167 19.3542 18.7708 19.0625 19.0625C18.7708 19.3542 18.4167 19.5 18 19.5V19.5M18 28C16.6167 28 15.3167 27.7375 14.1 27.2125C12.8833 26.6875 11.825 25.975 10.925 25.075C10.025 24.175 9.3125 23.1167 8.7875 21.9C8.2625 20.6833 8 19.3833 8 18C8 16.6167 8.2625 15.3167 8.7875 14.1C9.3125 12.8833 10.025 11.825 10.925 10.925C11.825 10.025 12.8833 9.3125 14.1 8.7875C15.3167 8.2625 16.6167 8 18 8C19.3833 8 20.6833 8.2625 21.9 8.7875C23.1167 9.3125 24.175 10.025 25.075 10.925C25.975 11.825 26.6875 12.8833 27.2125 14.1C27.7375 15.3167 28 16.6167 28 18C28 19.3833 27.7375 20.6833 27.2125 21.9C26.6875 23.1167 25.975 24.175 25.075 25.075C24.175 25.975 23.1167 26.6875 21.9 27.2125C20.6833 27.7375 19.3833 28 18 28V28M18 26C20.2167 26 22.1042 25.2208 23.6625 23.6625C25.2208 22.1042 26 20.2167 26 18C26 15.7833 25.2208 13.8958 23.6625 12.3375C22.1042 10.7792 20.2167 10 18 10C15.7833 10 13.8958 10.7792 12.3375 12.3375C10.7792 13.8958 10 15.7833 10 18C10 20.2167 10.7792 22.1042 12.3375 23.6625C13.8958 25.2208 15.7833 26 18 26V26M18 18V18V18V18V18V18V18V18V18V18" fill="var(--fill-0, white)"/>
</g>
</svg>
