<svg preserveAspectRatio="none" width="100%" height="100%" overflow="visible" style="display: block;" viewBox="0 0 7 10" fill="none" xmlns="http://www.w3.org/2000/svg">
<g id="Container">
<path id="Icon" d="M3.5 10C2.61667 10 1.89583 9.86042 1.3375 9.58125C0.779167 9.30208 0.5 8.94167 0.5 8.5C0.5 8.3 0.560417 8.11458 0.68125 7.94375C0.802083 7.77292 0.970833 7.625 1.1875 7.5L1.975 8.2375C1.9 8.27083 1.81875 8.30833 1.73125 8.35C1.64375 8.39167 1.575 8.44167 1.525 8.5C1.63333 8.63333 1.88333 8.75 2.275 8.85C2.66667 8.95 3.075 9 3.5 9C3.925 9 4.33542 8.95 4.73125 8.85C5.12708 8.75 5.37917 8.63333 5.4875 8.5C5.42917 8.43333 5.35417 8.37917 5.2625 8.3375C5.17083 8.29583 5.08333 8.25833 5 8.225L5.775 7.475C6.00833 7.60833 6.1875 7.76042 6.3125 7.93125C6.4375 8.10208 6.5 8.29167 6.5 8.5C6.5 8.94167 6.22083 9.30208 5.6625 9.58125C5.10417 9.86042 4.38333 10 3.5 10V10M3.5125 7.25C4.3375 6.64167 4.95833 6.03125 5.375 5.41875C5.79167 4.80625 6 4.19167 6 3.575C6 2.725 5.72917 2.08333 5.1875 1.65C4.64583 1.21667 4.08333 1 3.5 1C2.91667 1 2.35417 1.21667 1.8125 1.65C1.27083 2.08333 1 2.725 1 3.575C1 4.13333 1.20417 4.71458 1.6125 5.31875C2.02083 5.92292 2.65417 6.56667 3.5125 7.25V7.25M3.5 8.5C2.325 7.63333 1.44792 6.79167 0.86875 5.975C0.289583 5.15833 0 4.35833 0 3.575C0 2.98333 0.10625 2.46458 0.31875 2.01875C0.53125 1.57292 0.804167 1.2 1.1375 0.9C1.47083 0.6 1.84583 0.375 2.2625 0.225C2.67917 0.075 3.09167 0 3.5 0C3.90833 0 4.32083 0.075 4.7375 0.225C5.15417 0.375 5.52917 0.6 5.8625 0.9C6.19583 1.2 6.46875 1.57292 6.68125 2.01875C6.89375 2.46458 7 2.98333 7 3.575C7 4.35833 6.71042 5.15833 6.13125 5.975C5.55208 6.79167 4.675 7.63333 3.5 8.5V8.5M3.5 4.5C3.775 4.5 4.01042 4.40208 4.20625 4.20625C4.40208 4.01042 4.5 3.775 4.5 3.5C4.5 3.225 4.40208 2.98958 4.20625 2.79375C4.01042 2.59792 3.775 2.5 3.5 2.5C3.225 2.5 2.98958 2.59792 2.79375 2.79375C2.59792 2.98958 2.5 3.225 2.5 3.5C2.5 3.775 2.59792 4.01042 2.79375 4.20625C2.98958 4.40208 3.225 4.5 3.5 4.5V4.5M3.5 3.5V3.5V3.5V3.5V3.5V3.5V3.5V3.5V3.5V3.5" fill="var(--fill-0, #727972)"/>
</g>
</svg>
