<svg preserveAspectRatio="none" width="100%" height="100%" overflow="visible" style="display: block;" viewBox="0 0 14.4937 21.5" fill="none" xmlns="http://www.w3.org/2000/svg">
<g id="Container">
<path id="Icon" d="M2.49375 21.5L5.56875 5.95C5.66875 5.46667 5.89375 5.10417 6.24375 4.8625C6.59375 4.62083 6.96042 4.5 7.34375 4.5C7.72708 4.5 8.08125 4.58333 8.40625 4.75C8.73125 4.91667 8.99375 5.16667 9.19375 5.5L10.1938 7.1C10.4938 7.58333 10.8812 8.02083 11.3562 8.4125C11.8312 8.80417 12.3771 9.09167 12.9937 9.275V7.5H14.4937V21.5H12.9937V11.35C12.1937 11.1667 11.4521 10.875 10.7688 10.475C10.0854 10.075 9.49375 9.58333 8.99375 9L8.39375 12L10.4937 14V21.5H8.49375V15.5L6.39375 13.5L4.59375 21.5H2.49375V21.5M2.91875 11.625L0.79375 11.225C0.527083 11.175 0.31875 11.0375 0.16875 10.8125C0.01875 10.5875 -0.03125 10.3333 0.01875 10.05L0.76875 6.125C0.86875 5.59167 1.15208 5.17083 1.61875 4.8625C2.08542 4.55417 2.58542 4.45 3.11875 4.55L4.26875 4.775L2.91875 11.625V11.625M8.99375 4C8.44375 4 7.97292 3.80417 7.58125 3.4125C7.18958 3.02083 6.99375 2.55 6.99375 2C6.99375 1.45 7.18958 0.979167 7.58125 0.5875C7.97292 0.195833 8.44375 0 8.99375 0C9.54375 0 10.0146 0.195833 10.4063 0.5875C10.7979 0.979167 10.9937 1.45 10.9937 2C10.9937 2.55 10.7979 3.02083 10.4063 3.4125C10.0146 3.80417 9.54375 4 8.99375 4V4" fill="var(--fill-0, #163422)"/>
</g>
</svg>
