<svg preserveAspectRatio="none" width="100%" height="100%" overflow="visible" style="display: block;" viewBox="0 0 24 20" fill="none" xmlns="http://www.w3.org/2000/svg">
<g id="Container">
<path id="Icon" d="M7 20V16H0L3.85 10H2L9 0L12 4.3L15 0L22 10H20.15L24 16H17V20H13V16H11V20H7V20M16.725 14H20.35L16.475 8H18.15L15 3.5L13.225 6.025L16 10H14.15L16.725 14V14M3.65 14H14.35L10.475 8H12.15L9 3.5L5.85 8H7.525L3.65 14V14M3.65 14H7.525H5.85H9H12.15H10.475H14.35H3.65V14M16.725 14H14.15H16H13.225H15H18.15H16.475H20.35H16.725V14M13 16H17V16H13V16V16M18.025 16V16V16V16V16V16V16V16V16V16" fill="var(--fill-0, #163422)"/>
</g>
</svg>
