<svg xmlns="http://www.w3.org/2000/svg" viewBox="0 0 32 40" fill="none">
  <path d="M12.2 2C6.1 2 1 6.2 1 11.4c0 2.9 1.6 5.5 4.1 7.3l-1 3.7 4.3-2.1c1.2.3 2.4.5 3.7.5.4 0 .8 0 1.2-.1-.3-.8-.4-1.7-.4-2.6 0-5.5 5.1-10 11.4-10 .5 0 1 0 1.5.1C24.1 4.6 18.6 2 12.2 2zm-4 5.5c.8 0 1.5.7 1.5 1.5s-.7 1.5-1.5 1.5-1.5-.7-1.5-1.5.7-1.5 1.5-1.5zm8 0c.8 0 1.5.7 1.5 1.5s-.7 1.5-1.5 1.5-1.5-.7-1.5-1.5.7-1.5 1.5-1.5z" fill="#ffffff"/>
  <path d="M31 18.1c0-4.4-4.5-8-10-8s-10 3.6-10 8 4.5 8 10 8c1.1 0 2.1-.1 3.1-.4l3.5 1.7-.8-3c2.5-1.5 4.2-3.8 4.2-6.3zm-13.5-1.5c-.7 0-1.2-.5-1.2-1.2s.5-1.2 1.2-1.2 1.2.5 1.2 1.2-.5 1.2-1.2 1.2zm7 0c-.7 0-1.2-.5-1.2-1.2s.5-1.2 1.2-1.2 1.2.5 1.2 1.2-.5 1.2-1.2 1.2z" fill="#ffffff"/>
</svg>
